<svg width="50" height="50" viewBox="0 0 50 50" fill="none" xmlns="http://www.w3.org/2000/svg">
<mask id="mask0_63_81" style="mask-type:alpha" maskUnits="userSpaceOnUse" x="1" y="1" width="48" height="48">
<path d="M45 23.1597V24.9997C44.9975 29.3126 43.601 33.5091 41.0187 36.9634C38.4363 40.4177 34.8066 42.9447 30.6707 44.1675C26.5349 45.3904 22.1145 45.2435 18.0689 43.7489C14.0234 42.2543 10.5693 39.4919 8.22192 35.8739C5.87453 32.2558 4.75958 27.9759 5.04335 23.6724C5.32712 19.3689 6.99441 15.2724 9.79656 11.9939C12.5987 8.71537 16.3856 6.43049 20.5924 5.48002C24.7992 4.52955 29.2005 4.9644 33.14 6.71973M45 8.99973L25 29.0197L19 23.0197" stroke="#1E1E1E" stroke-width="4" stroke-linecap="round" stroke-linejoin="round"/>
</mask>
<g mask="url(#mask0_63_81)">
<rect width="50" height="50" fill="#0E1648"/>
</g>
</svg>
