<svg width="50" height="50" viewBox="0 0 50 50" fill="none" xmlns="http://www.w3.org/2000/svg">
<g clip-path="url(#clip0_241_43)">
<path d="M24.9999 24.9997C22.7083 24.9997 20.7464 24.1837 19.1145 22.5518C17.4826 20.9198 16.6666 18.958 16.6666 16.6663C16.6666 14.3747 17.4826 12.4129 19.1145 10.7809C20.7464 9.14898 22.7083 8.33301 24.9999 8.33301C27.2916 8.33301 29.2534 9.14898 30.8853 10.7809C32.5173 12.4129 33.3333 14.3747 33.3333 16.6663C33.3333 18.958 32.5173 20.9198 30.8853 22.5518C29.2534 24.1837 27.2916 24.9997 24.9999 24.9997ZM8.33325 41.6663V35.833C8.33325 34.6525 8.63707 33.5674 9.24471 32.5778C9.85235 31.5882 10.6596 30.833 11.6666 30.3122C13.8194 29.2358 16.0069 28.4285 18.2291 27.8903C20.4513 27.3521 22.7083 27.083 24.9999 27.083C27.2916 27.083 29.5485 27.3521 31.7708 27.8903C33.993 28.4285 36.1805 29.2358 38.3333 30.3122C39.3402 30.833 40.1475 31.5882 40.7551 32.5778C41.3628 33.5674 41.6666 34.6525 41.6666 35.833V41.6663H8.33325ZM12.4999 37.4997H37.4999V35.833C37.4999 35.4511 37.4044 35.1038 37.2135 34.7913C37.0225 34.4788 36.7708 34.2358 36.4583 34.0622C34.5833 33.1247 32.6909 32.4216 30.7812 31.9528C28.8714 31.4841 26.9444 31.2497 24.9999 31.2497C23.0555 31.2497 21.1284 31.4841 19.2187 31.9528C17.3089 32.4216 15.4166 33.1247 13.5416 34.0622C13.2291 34.2358 12.9773 34.4788 12.7864 34.7913C12.5954 35.1038 12.4999 35.4511 12.4999 35.833V37.4997ZM24.9999 20.833C26.1458 20.833 27.1267 20.425 27.9426 19.6091C28.7586 18.7931 29.1666 17.8122 29.1666 16.6663C29.1666 15.5205 28.7586 14.5396 27.9426 13.7236C27.1267 12.9077 26.1458 12.4997 24.9999 12.4997C23.8541 12.4997 22.8732 12.9077 22.0572 13.7236C21.2412 14.5396 20.8333 15.5205 20.8333 16.6663C20.8333 17.8122 21.2412 18.7931 22.0572 19.6091C22.8732 20.425 23.8541 20.833 24.9999 20.833Z" fill="#FEF7FF"/>
</g>
<defs>
<clipPath id="clip0_241_43">
<rect width="50" height="50" fill="white"/>
</clipPath>
</defs>
</svg>
